<svg xmlns="http://www.w3.org/2000/svg" width="80" height="80" viewBox="0 0 80 80">
    <g fill="none" fill-rule="evenodd">
        <path fill="#FFF" stroke="#005FA1" stroke-width="3.01" d="M41.845 21.726zm2.876-.887c1.275 4.138-.392 8.427-3.965 9.48-2.88.846-4.124-.68-5.109-4.227-.071-.258-.319-1.178-.328-1.21-.132-.487-.24-.865-.353-1.233-1.299-4.209-1.002-7.273 1.442-9.483 1.882-1.701 3.87-1.781 5.367-.239.929.957 1.556 2.354 2.235 4.531.153.49.628 2.11.711 2.38z"/>
        <path fill="#FFF" d="M5.536 31.667L4 38.493c27.703 15.063 42.04 22.788 43.011 23.174 1.456.579 10.432 3.991 14.64 3.22 2.807-.514 5.173-1.588 7.099-3.22-7.007.277-13.093-.856-18.258-3.399-5.164-2.542-20.15-11.41-44.956-26.601z"/>
        <path fill="#0097FF" d="M6.643 34.804a5305.472 5305.472 0 0 0 14.087 8.823c11.21 6.98 21.791 13.99 29.1 17.024 15.07 6.256 21.661 4.758 24.857 1.744 3.197-3.014 5.491-7.686 0-11.196-5.49-3.511-4.045-.238-10.98-5.152-6.936-4.913-17.1-20.485-17.816-23.244-.716-2.758-6.964 5.115-10.706 3.782-3.743-1.334-5.612-.603-6.349-3.782-.737-3.178-1.532-8.054-2.702-9.8-1.17-1.744-3.982-5.017-8.9 0-3.279 3.346-6.337 8.853-9.176 16.522l-1.415 5.28z"/>
        <path stroke="#005FA1" stroke-linecap="round" stroke-linejoin="round" stroke-width="3.01" d="M2.52 38.323l.072-.362c.058-.286.128-.616.209-.987a89.6 89.6 0 0 1 .845-3.498c.948-3.617 2.114-7.236 3.509-10.624 2.3-5.585 4.994-9.994 8.166-12.8 2.577-2.28 4.93-3.045 6.995-2.264 1.646.623 2.779 2.086 3.567 4.078.331.837.58 1.72.761 2.6.11.53.173.95.201 1.207l.018.16-.016.16-.003.041c-.025.476.016 1.141.183 1.922a9.149 9.149 0 0 0 1.535 3.455c.871 1.21 2.069 2.28 3.65 3.167 3.027 1.7 5.766 1.16 8.277-.837.525-.419.993-.869 1.394-1.317a7.31 7.31 0 0 0 .454-.549l1.305-1.83 1.194 1.904a104.89 104.89 0 0 0 .644 1.014c.516.81 1.098 1.713 1.73 2.686a312.687 312.687 0 0 0 5.474 8.145c.528.757 1.044 1.488 1.547 2.19 3.436 4.794 6.127 8.037 7.511 8.958.947.63 1.97 1.15 3.208 1.658.694.285 1.074.426 2.597.975 3.825 1.378 5.642 2.31 7.553 4.278 4.21 4.335.219 10.962-5.441 12.782-.058.018-2.958.997-3.757 1.223-3.84 1.089-7.478.866-15.064-1.181C46.6 63.533 38.86 59.85 28.51 54.273c-1.123-.605-2.27-1.229-3.437-1.87a721.908 721.908 0 0 1-15.195-8.6 763.085 763.085 0 0 1-6.651-3.911l-.9-.539.194-1.03z"/>
        <path stroke="#005FA1" stroke-width="2.712" d="M6.643 23.667C17.625 28.53 20.7 33.87 19.67 38.333M75.357 52.251c-10.753 1.292-17.15 1.55-21.143-4.584"/>
        <path stroke="#005FA1" stroke-linecap="round" stroke-width="2.15" d="M5.321 31.54S43.934 55.813 49.65 58.28c8.306 3.588 23.064 4.053 23.064 4.053M42.307 32.001l6.485-4.03m-3.574 6.951l5.013-2.92m-2.103 5.84l5.014-2.92M16.36 30.467l12.404-6.8m31.75 21.06l-19.112 8.766"/>
        <path fill="#FFF" d="M34.814 37.492l-.026-.014v-.001l-.026-.015c-.825-.457-1.393-1.018-1.726-1.58.653-.015 1.43.169 2.257.626l.026.014v.001l.026.015c.825.457 1.393 1.018 1.726 1.58-.653.015-1.43-.169-2.257-.626zm4.244 1.727c1.71.2 3.095-.156 3.673-1.082 0 0-.22-.468-1.182-1.534-.844-.936-1.593-1.459-1.593-1.459l-1.174 2.127c-.176.317-.492.565-.909.71a13.45 13.45 0 0 0-2.417-1.704 13.46 13.46 0 0 0-2.73-1.149c-.098-.43-.056-.83.12-1.147l1.182-2.123s-.84-.358-2.082-.578c-1.413-.25-1.927-.189-1.927-.189-.48.981-.046 2.345 1.03 3.69-1.71-.2-3.095.156-3.673 1.082 0 0 .22.468 1.182 1.534.844.936 1.593 1.459 1.593 1.459l1.174-2.127c.176-.317.492-.565.909-.71.69.615 1.505 1.197 2.418 1.703.914.507 1.841.89 2.73 1.15.098.43.054.83-.122 1.147l-1.18 2.123s.84.358 2.081.578c1.413.25 1.927.189 1.927.189.48-.981.046-2.345-1.03-3.69z"/>
    </g>
</svg>
